<svg xmlns="http://www.w3.org/2000/svg" width="180" height="19" viewBox="0 0 180 19">
    <g fill="none" fill-rule="nonzero">
        <ellipse cx="9.722" cy="9.5" fill="#FFF" rx="9.722" ry="9.5"/>
        <g fill="#FFF">
            <path d="M41.683 2.341v15.465h-2.619V6.218L34.49 17.812h-2.282L27.608 6.218v11.594h-2.595V2.342h3.143l5.237 12.346L38.54 2.341zM52.748 6.218a4.446 4.446 0 0 1 1.71 2.182V5.547h2.594v12.259h-2.594v-2.847a4.472 4.472 0 0 1-1.71 2.182c-.807.547-1.776.824-2.914.824-1.096 0-2.07-.253-2.926-.76-.86-.505-1.529-1.229-2.016-2.181-.488-.948-.729-2.071-.729-3.36 0-1.276.241-2.388.729-3.335.487-.947 1.155-1.676 2.016-2.182.855-.506 1.836-.759 2.926-.759 1.138.006 2.113.277 2.914.83zm-4.882 2.476c-.693.718-1.036 1.712-1.036 2.97 0 1.26.343 2.254 1.036 2.971.692.718 1.613 1.077 2.769 1.077.728 0 1.378-.165 1.956-.5a3.63 3.63 0 0 0 1.367-1.412c.331-.606.5-1.318.5-2.135 0-.8-.169-1.512-.5-2.124a3.584 3.584 0 0 0-1.367-1.423c-.578-.336-1.228-.5-1.956-.5-1.156 0-2.077.358-2.77 1.076zM66.48 15.606v2.2h-1.596c-1.336 0-2.348-.318-3.04-.947-.692-.63-1.035-1.683-1.035-3.147V7.706h-1.8V5.547h1.8V2.5h2.618v3.047h3.029v2.159h-3.029v6.053c0 .7.133 1.176.398 1.447.265.265.734.4 1.402.4h1.253zM80.488 12.176h-9.656c.048 1.26.403 2.195 1.072 2.806.668.606 1.493.912 2.48.912.867 0 1.595-.218 2.197-.647.602-.43.97-1 1.102-1.712h2.775a5.288 5.288 0 0 1-1.047 2.294c-.53.665-1.222 1.189-2.071 1.571-.849.376-1.8.565-2.848.565-1.216 0-2.287-.253-3.22-.76a5.428 5.428 0 0 1-2.198-2.181c-.53-.948-.794-2.071-.794-3.36 0-1.276.264-2.388.794-3.335a5.465 5.465 0 0 1 2.198-2.182c.933-.506 2.004-.759 3.22-.759 1.228 0 2.306.247 3.221.747.921.5 1.625 1.177 2.12 2.047.493.87.74 1.836.74 2.906a5.34 5.34 0 0 1-.085 1.088zm-2.95-3.17a2.89 2.89 0 0 0-1.276-1.2 4.026 4.026 0 0 0-1.764-.388c-1.017 0-1.866.306-2.552.911-.68.606-1.054 1.506-1.114 2.695h7.128c.03-.8-.108-1.477-.422-2.018zM87.502 6.047c.788-.465 1.697-.7 2.733-.7v2.759h-.777c-1.138 0-2.053.27-2.745.812-.692.54-1.035 1.435-1.035 2.682v6.206h-2.595V5.547h2.595v2.406a4.8 4.8 0 0 1 1.824-1.906zM92.258.918c.3-.283.704-.424 1.204-.424s.909.141 1.216.424c.313.282.47.635.47 1.07 0 .43-.157.777-.47 1.047-.313.265-.717.4-1.216.4-.5 0-.903-.135-1.204-.4-.301-.264-.458-.617-.458-1.047.006-.43.157-.788.458-1.07zm2.51 4.63v12.258h-2.6V5.547h2.6zM105.857 6.218a4.446 4.446 0 0 1 1.71 2.182V5.547h2.594v12.259h-2.594v-2.847a4.472 4.472 0 0 1-1.71 2.182c-.807.547-1.776.824-2.914.824-1.096 0-2.07-.253-2.926-.76-.86-.505-1.529-1.229-2.016-2.181-.488-.948-.729-2.071-.729-3.36 0-1.276.241-2.388.729-3.335.487-.947 1.156-1.676 2.016-2.182.855-.506 1.837-.759 2.926-.759 1.138.006 2.107.277 2.914.83zm-4.888 2.476c-.693.718-1.036 1.712-1.036 2.97 0 1.26.343 2.254 1.036 2.971.692.718 1.613 1.077 2.769 1.077.728 0 1.378-.165 1.956-.5a3.63 3.63 0 0 0 1.367-1.412c.331-.606.5-1.318.5-2.135 0-.8-.169-1.512-.5-2.124a3.584 3.584 0 0 0-1.367-1.423c-.578-.336-1.228-.5-1.956-.5-1.156 0-2.077.358-2.77 1.076zM115.874 1.341v16.465h-2.594V1.34zM137.155 14.082c-.662 1.177-1.625 2.094-2.89 2.747-1.27.653-2.78.977-4.545.977h-5.376V2.1h5.376c1.764 0 3.275.324 4.546.97 1.27.648 2.233 1.554 2.89 2.724.661 1.17.992 2.553.992 4.141 0 1.583-.33 2.965-.993 4.147zm-3.196-.035c1.029-.976 1.547-2.353 1.547-4.118 0-1.764-.518-3.135-1.547-4.117-1.036-.977-2.51-1.47-4.443-1.47h-2.57v11.17h2.57c1.926.006 3.407-.483 4.443-1.465zM148.714 6.218a4.446 4.446 0 0 1 1.71 2.182V5.547h2.594v12.259h-2.595v-2.847a4.438 4.438 0 0 1-1.71 2.182c-.806.547-1.775.824-2.913.824-1.096 0-2.07-.253-2.926-.76-.855-.505-1.529-1.229-2.016-2.181-.488-.948-.729-2.071-.729-3.36 0-1.276.24-2.388.729-3.335.487-.947 1.155-1.676 2.016-2.182.855-.506 1.836-.759 2.926-.759 1.138.006 2.107.277 2.914.83zm-4.889 2.476c-.692.718-1.035 1.712-1.035 2.97 0 1.26.343 2.254 1.035 2.971.693.718 1.614 1.077 2.77 1.077.728 0 1.378-.165 1.956-.5a3.63 3.63 0 0 0 1.367-1.412c.33-.606.5-1.318.5-2.135 0-.8-.17-1.512-.5-2.124a3.544 3.544 0 0 0-1.367-1.423c-.578-.336-1.228-.5-1.956-.5-1.156 0-2.077.358-2.77 1.076zM163.8 6.494c.891.735 1.433 1.718 1.625 2.947h-2.462c-.108-.665-.397-1.206-.879-1.612-.475-.405-1.113-.611-1.902-.611-.65 0-1.156.153-1.517.458-.355.306-.536.718-.536 1.236 0 .388.127.7.385.935.26.235.578.424.97.559.39.135.939.282 1.65.447.938.206 1.703.423 2.287.647a3.755 3.755 0 0 1 1.505 1.059c.415.482.626 1.141.626 1.97 0 1.024-.397 1.853-1.198 2.495-.795.635-1.872.958-3.22.958-1.566 0-2.83-.358-3.794-1.07-.963-.712-1.547-1.706-1.74-2.983h2.53c.077.665.378 1.212.908 1.624.53.418 1.228.623 2.095.623.62 0 1.114-.158 1.469-.476a1.56 1.56 0 0 0 .536-1.212c0-.43-.139-.77-.41-1.023a2.826 2.826 0 0 0-1.023-.589c-.41-.14-.97-.288-1.686-.435a19.277 19.277 0 0 1-2.221-.623 3.455 3.455 0 0 1-1.457-1.012c-.403-.465-.602-1.1-.602-1.9 0-1.035.397-1.882 1.198-2.524.8-.64 1.902-.97 3.311-.97 1.481-.018 2.661.347 3.552 1.082zM178.682 6.73c.879.917 1.318 2.235 1.318 3.94v7.142h-2.595v-6.877c0-1.1-.289-1.947-.867-2.547-.577-.6-1.366-.9-2.365-.9-1.036 0-1.86.324-2.48.97-.62.648-.934 1.59-.934 2.836v6.518h-2.594V1.342h2.594v6.9c.331-.918.897-1.63 1.686-2.136.788-.506 1.697-.759 2.733-.759 1.457 0 2.625.459 3.504 1.382z"/>
        </g>
        <path fill="#008CCE" d="M5.165 5.047h4.563v4.459H5.165z"/>
        <path fill="#7B63AB" d="M9.722 5.047h4.563v4.459H9.722z"/>
        <path fill="#EE334A" d="M9.722 13.953H7.868c-1.499 0-2.709-1.182-2.709-2.647V9.494h4.563v4.459z"/>
        <path fill="#00AD4D" d="M11.83 13.953H9.721V9.494h4.564v2.059c-.006 1.33-1.102 2.4-2.457 2.4z"/>
    </g>
</svg>
