<?xml version="1.0" encoding="utf-8"?>
<!-- Generator: Adobe Illustrator 22.0.1, SVG Export Plug-In . SVG Version: 6.00 Build 0)  -->
<svg version="1.1" id="Layer_1" xmlns="http://www.w3.org/2000/svg" xmlns:xlink="http://www.w3.org/1999/xlink" x="0px" y="0px"
	 viewBox="0 0 344.3 50.5" style="enable-background:new 0 0 344.3 50.5;" xml:space="preserve">
<style type="text/css">
	.st0{fill:#00A9F4;}
	.st1{fill:#1990BA;}
	.st2{fill:#FFFFFF;}
	.st3{fill:#0B0E0F;}
</style>
<circle class="st0" cx="25.3" cy="25.3" r="25.3"/>
<path class="st1" d="M49.7,31c-2.3,9.3-9.4,16.9-18.8,18.9L16.2,36.4l2.9-16.1l1.6-0.7l4.2,12.9l0.3-1.1l0.6-1.4L34,16.6L49.7,31z"
	/>
<g>
	<path class="st2" d="M21,16.2l3.7,14.4l3.7-14.4h5.2V36h-4v-5.4l0.4-8.3l-4,13.6h-2.7l-4-13.6l0.4,8.3V36h-4V16.2H21z"/>
</g>
<g>
	<path class="st3" d="M74.3,8.3L83,35.6l8.7-27.3h5.4v33.4h-4.2v-13l0.4-13l-8.7,26h-3.2l-8.7-25.9l0.4,12.9v13h-4.2V8.3H74.3z"/>
	<path class="st3" d="M116.6,41.7c-0.2-0.5-0.4-1.4-0.5-2.7c-1.4,2.1-3.3,3.2-5.5,3.2s-4-0.6-5.3-1.9c-1.3-1.3-1.9-3-1.9-5.3
		c0-2.5,0.9-4.5,2.6-6s4.1-2.2,7-2.3h3v-2.6c0-1.5-0.3-2.5-1-3.2c-0.7-0.6-1.7-0.9-3-0.9c-1.2,0-2.2,0.4-3,1.1s-1.1,1.6-1.1,2.8
		h-4.1c0-1.3,0.4-2.5,1.1-3.6c0.7-1.2,1.8-2.1,3-2.7c1.3-0.7,2.7-1,4.2-1c2.5,0,4.5,0.6,5.8,1.9s2,3.1,2,5.5v12.5
		c0,1.9,0.3,3.6,0.8,5v0.4h-4.1V41.7z M111.1,38.5c1,0,1.9-0.3,2.8-0.8c0.9-0.6,1.6-1.2,2-2.1v-5.9h-2.3c-1.9,0-3.4,0.5-4.6,1.3
		c-1.1,0.8-1.7,2-1.7,3.5c0,1.4,0.3,2.4,0.8,3.1C108.8,38.2,109.8,38.5,111.1,38.5z"/>
	<path class="st3" d="M131.6,10.9v6h3.7v3.3h-3.7v15.4c0,1,0.2,1.7,0.5,2.2s0.9,0.8,1.7,0.8c0.5,0,1.1-0.1,1.6-0.3v3.4
		c-0.9,0.3-1.9,0.5-2.8,0.5c-1.6,0-2.8-0.6-3.7-1.7c-0.8-1.1-1.3-2.8-1.3-4.9V20.2h-3.8v-3.3h3.8v-6
		C127.6,10.9,131.6,10.9,131.6,10.9z"/>
	<path class="st3" d="M149,42.2c-3.1,0-5.5-0.9-7.1-2.8c-1.7-1.8-2.5-4.5-2.5-8.1v-3c0-3.7,0.8-6.6,2.4-8.7c1.6-2.1,3.9-3.2,6.8-3.2
		c2.9,0,5.1,0.9,6.5,2.8s2.2,4.7,2.2,8.6v2.7h-13.9v0.6c0,2.7,0.5,4.6,1.5,5.8s2.4,1.8,4.3,1.8c1.2,0,2.2-0.2,3.2-0.7
		c0.9-0.5,1.8-1.2,2.6-2.1l2.1,2.6C155.3,41,152.6,42.2,149,42.2z M148.6,20c-1.7,0-2.9,0.6-3.7,1.7c-0.8,1.2-1.3,2.9-1.4,5.4h9.8
		v-0.6c-0.1-2.4-0.5-4-1.3-5C151.2,20.5,150.1,20,148.6,20z"/>
	<path class="st3" d="M172.4,20.7c-0.6-0.1-1.2-0.2-1.8-0.2c-2.1,0-3.5,1.1-4.4,3.4v17.8h-4.1V16.9h3.9l0.1,2.5c1.1-2,2.6-3,4.6-3
		c0.6,0,1.2,0.1,1.6,0.3L172.4,20.7z"/>
	<path class="st3" d="M181.1,10.3c0,0.7-0.2,1.3-0.6,1.7c-0.4,0.5-1,0.7-1.7,0.7c-0.8,0-1.3-0.2-1.7-0.7s-0.6-1-0.6-1.7
		s0.2-1.3,0.6-1.7c0.4-0.5,1-0.7,1.7-0.7c0.8,0,1.3,0.2,1.7,0.7S181.1,9.7,181.1,10.3z M180.8,41.7h-4.1V16.9h4.1V41.7z"/>
	<path class="st3" d="M200,41.7c-0.2-0.5-0.4-1.4-0.5-2.7c-1.4,2.1-3.3,3.2-5.5,3.2s-4-0.6-5.3-1.9c-1.3-1.3-1.9-3-1.9-5.3
		c0-2.5,0.9-4.5,2.6-6c1.7-1.5,4.1-2.2,7-2.3h3v-2.6c0-1.5-0.3-2.5-1-3.2c-0.7-0.6-1.7-0.9-3-0.9c-1.2,0-2.2,0.4-3,1.1
		s-1.1,1.6-1.1,2.8h-4.1c0-1.3,0.4-2.5,1.1-3.6c0.7-1.2,1.8-2.1,3-2.7c1.3-0.7,2.7-1,4.2-1c2.5,0,4.5,0.6,5.8,1.9s2,3.1,2,5.5v12.5
		c0,1.9,0.3,3.6,0.8,5v0.4H200V41.7z M194.6,38.5c1,0,1.9-0.3,2.8-0.8c0.9-0.6,1.6-1.2,2-2.1v-5.9h-2.3c-1.9,0-3.4,0.5-4.6,1.3
		c-1.1,0.8-1.7,2-1.7,3.5c0,1.4,0.3,2.4,0.8,3.1C192.3,38.2,193.2,38.5,194.6,38.5z"/>
	<path class="st3" d="M214.1,41.7H210V6.5h4.1V41.7z"/>
	<path class="st3" d="M247.4,33h-11.3l-2.6,8.7h-4.3L240,8.3h3.6l10.8,33.4H250L247.4,33z M237.2,29.4h9.1l-4.6-15.2L237.2,29.4z"/>
	<path class="st3" d="M257.4,28.2c0-3.8,0.7-6.7,2.1-8.7s3.5-3,6.2-3c2.4,0,4.2,1,5.6,2.9V6.5h4.1v35.2h-3.7l-0.2-2.7
		c-1.3,2.1-3.2,3.1-5.7,3.1c-2.6,0-4.6-1-6-3c-1.5-2-2.2-4.8-2.2-8.5v-2.4H257.4z M261.5,30.5c0,2.8,0.4,4.8,1.2,6.1
		c0.8,1.3,2.2,2,4,2c2,0,3.5-1,4.5-3V23c-1-2-2.5-3-4.5-3c-1.9,0-3.2,0.7-4,2s-1.2,3.3-1.3,6L261.5,30.5L261.5,30.5z"/>
	<path class="st3" d="M285.4,16.9l0.1,2.3c1.5-1.8,3.5-2.8,6-2.8c2.8,0,4.7,1.2,5.8,3.6c1.6-2.4,3.7-3.6,6.5-3.6
		c4.6,0,6.9,2.9,7,8.6v16.7h-4V25.4c0-1.8-0.3-3.1-1-4c-0.6-0.9-1.7-1.3-3.3-1.3c-1.2,0-2.2,0.5-3,1.4s-1.2,2.2-1.3,3.6v16.6h-4.1
		V25.2c0-3.4-1.4-5.2-4.2-5.2c-2,0-3.5,1-4.3,3.1v18.6h-4V16.9H285.4z"/>
	<path class="st3" d="M321.6,10.3c0,0.7-0.2,1.3-0.6,1.7c-0.4,0.5-1,0.7-1.7,0.7c-0.8,0-1.3-0.2-1.7-0.7c-0.4-0.5-0.6-1-0.6-1.7
		s0.2-1.3,0.6-1.7c0.4-0.5,1-0.7,1.7-0.7c0.8,0,1.3,0.2,1.7,0.7C321.4,9.1,321.6,9.7,321.6,10.3z M321.3,41.7h-4.1V16.9h4.1V41.7z"
		/>
	<path class="st3" d="M331.5,16.9l0.1,2.7c1.6-2.1,3.6-3.1,6-3.1c4.4,0,6.6,2.9,6.7,8.8v16.5h-4V25.4c0-1.9-0.3-3.3-1-4.1
		c-0.7-0.8-1.6-1.2-2.9-1.2c-1,0-1.9,0.3-2.7,1c-0.8,0.7-1.4,1.6-1.9,2.6v18h-4.1V16.9H331.5z"/>
</g>
</svg>
